<svg width="66" height="63" viewBox="0 0 66 63" fill="none" xmlns="http://www.w3.org/2000/svg">
<path d="M38.0313 1.71992C40.2325 9.77129 55.1622 12.41 65.088 17.6053C65.3067 22.4178 63.1192 27.5311 57.336 31.5916C57.7325 41.1893 51.6212 46.658 41.7091 49.6932C41.6681 54.2322 39.9728 58.4432 35.2423 62.0389L27.1759 57.0623L33.6563 52.3865C33.4103 48.8865 32.3438 45.2361 26.1368 43.1854L22.5411 30.4432C15.0899 29.0213 15.4454 26.1639 14.8438 23.4842L5.9667 26.2732C-0.753574 22.035 -1.12928 15.9646 6.82256 14.8709L7.77822 4.92051L14.7755 6.16738L16.1837 1.08008L22.9649 0L25.795 5.10371L38.0313 1.71992Z" fill="#FAFF00"/>
</svg>
