<svg width="66" height="58" viewBox="0 0 66 58" fill="none" xmlns="http://www.w3.org/2000/svg">
<path d="M24.2504 29.1667C25.7962 29.575 26.7295 31.1792 26.3212 32.725L22.5295 46.8125C22.1212 48.3875 20.517 49.2917 18.9712 48.8833C18.6003 48.7904 18.2522 48.6231 17.9479 48.3914C17.6437 48.1598 17.3898 47.8687 17.2016 47.5359C17.0133 47.2031 16.8947 46.8355 16.853 46.4554C16.8112 46.0753 16.8472 45.6907 16.9587 45.325L20.692 31.2375C21.1004 29.6625 22.7045 28.7583 24.2504 29.1667ZM35.917 29.1667C37.4629 29.575 38.3962 31.1792 37.9879 32.725L31.9504 55.2708C31.542 56.875 29.9379 57.75 28.3629 57.3417C26.817 56.875 25.8837 55.3292 26.292 53.7542L32.3587 31.2375C32.767 29.6625 34.3712 28.7583 35.917 29.1667ZM47.5837 29.1667C49.1295 29.575 50.0629 31.1792 49.6545 32.725L45.8629 46.8125C45.4545 48.3875 43.8504 49.2917 42.3045 48.8833C41.9336 48.7904 41.5855 48.6231 41.2813 48.3914C40.9771 48.1598 40.7231 47.8687 40.5349 47.5359C40.3467 47.2031 40.2281 46.8355 40.1863 46.4554C40.1446 46.0753 40.1805 45.6907 40.292 45.325L44.0254 31.2375C44.4337 29.6625 46.0379 28.7583 47.5837 29.1667ZM47.5837 23.3333V20.4167C47.5837 16.5489 46.0472 12.8396 43.3123 10.1047C40.5774 7.36979 36.8681 5.83333 33.0004 5.83333C25.7087 5.83333 19.7295 11.1417 18.592 18.0542C17.6295 17.7042 16.5795 17.5 15.5004 17.5C13.1797 17.5 10.9541 18.4219 9.31318 20.0628C7.67224 21.7038 6.75036 23.9294 6.75036 26.25C6.75036 29.4875 8.50036 32.3167 11.1254 33.8333V33.8042C12.5837 34.6208 12.992 36.4583 12.2045 37.8C11.3879 39.1708 9.66703 39.6667 8.2087 38.85V38.8792C5.98781 37.6038 4.14361 35.7639 2.86307 33.546C1.58252 31.3281 0.911153 28.811 0.91703 26.25C0.91703 22.3823 2.45348 18.6729 5.18839 15.938C7.9233 13.2031 11.6326 11.6667 15.5004 11.6667C18.417 4.8125 25.1254 0 33.0004 0C43.0045 0 51.2004 7.75833 51.9587 17.5875L53.417 17.5C56.5112 17.5 59.4787 18.7292 61.6666 20.9171C63.8545 23.105 65.0837 26.0725 65.0837 29.1667C65.0837 33.5417 62.7504 37.2458 59.2504 39.2583C57.792 40.0458 56.0712 39.5792 55.2545 38.1792C54.467 36.7792 54.8754 35 56.3337 34.1833V34.2125C58.0837 33.2208 59.2504 31.325 59.2504 29.1667C59.2504 27.6196 58.6358 26.1358 57.5418 25.0419C56.4479 23.9479 54.9641 23.3333 53.417 23.3333H47.5837Z" fill="#FAFF00"/>
</svg>
