<svg width="54" height="60" viewBox="0 0 54 60" fill="none" xmlns="http://www.w3.org/2000/svg">
<path d="M15.3333 35.8333C14.5069 35.8333 13.8138 35.5533 13.2538 34.9933C12.6957 34.4353 12.4167 33.743 12.4167 32.9166C12.4167 32.0903 12.6957 31.3971 13.2538 30.8371C13.8138 30.279 14.5069 30 15.3333 30C16.1597 30 16.8529 30.279 17.4129 30.8371C17.971 31.3971 18.25 32.0903 18.25 32.9166C18.25 33.743 17.971 34.4353 17.4129 34.9933C16.8529 35.5533 16.1597 35.8333 15.3333 35.8333ZM27 35.8333C26.1736 35.8333 25.4814 35.5533 24.9233 34.9933C24.3633 34.4353 24.0833 33.743 24.0833 32.9166C24.0833 32.0903 24.3633 31.3971 24.9233 30.8371C25.4814 30.279 26.1736 30 27 30C27.8264 30 28.5196 30.279 29.0796 30.8371C29.6376 31.3971 29.9167 32.0903 29.9167 32.9166C29.9167 33.743 29.6376 34.4353 29.0796 34.9933C28.5196 35.5533 27.8264 35.8333 27 35.8333ZM38.6667 35.8333C37.8403 35.8333 37.1481 35.5533 36.59 34.9933C36.03 34.4353 35.75 33.743 35.75 32.9166C35.75 32.0903 36.03 31.3971 36.59 30.8371C37.1481 30.279 37.8403 30 38.6667 30C39.4931 30 40.1853 30.279 40.7433 30.8371C41.3033 31.3971 41.5833 32.0903 41.5833 32.9166C41.5833 33.743 41.3033 34.4353 40.7433 34.9933C40.1853 35.5533 39.4931 35.8333 38.6667 35.8333ZM6.58333 59.1666C4.97917 59.1666 3.60542 58.596 2.46208 57.4546C1.32069 56.3112 0.75 54.9375 0.75 53.3333V12.5C0.75 10.8958 1.32069 9.52304 2.46208 8.38165C3.60542 7.23831 4.97917 6.66665 6.58333 6.66665H9.5V0.833313H15.3333V6.66665H38.6667V0.833313H44.5V6.66665H47.4167C49.0208 6.66665 50.3946 7.23831 51.5379 8.38165C52.6793 9.52304 53.25 10.8958 53.25 12.5V53.3333C53.25 54.9375 52.6793 56.3112 51.5379 57.4546C50.3946 58.596 49.0208 59.1666 47.4167 59.1666H6.58333ZM6.58333 53.3333H47.4167V24.1666H6.58333V53.3333ZM6.58333 18.3333H47.4167V12.5H6.58333V18.3333Z" fill="#FAFF00"/>
</svg>
