<svg width="70" height="70" viewBox="0 0 70 70" fill="none" xmlns="http://www.w3.org/2000/svg">
<path d="M0 29.2481C0 25.7143 1.23312 22.5564 3.65825 19.7744C6.08338 16.9925 9.16617 15.2256 12.9066 14.4737C13.9342 10.2632 16.2772 6.76692 19.9765 4.06015C23.6759 1.35338 27.8685 0 32.6365 0C37.2402 0 41.3917 1.31579 45.0499 3.94737C48.7082 6.57895 51.0511 9.96241 52.1609 14.0602H53.2707C57.8743 14.0602 61.8203 15.5263 65.1086 18.4962C68.3558 21.4286 70 25.0376 70 29.2105C70 31.4662 69.5067 33.609 68.4791 35.6015C67.4515 37.594 66.054 39.3233 64.2454 40.7519V40.8647C64.2454 43.0827 63.4645 45.0752 61.9436 46.8421C60.4228 48.609 58.4909 49.6992 56.1891 50.188C55.6136 52.5188 54.3394 54.5113 52.4486 56.1278C50.5578 57.7444 48.2971 58.7594 45.7487 59.1353C46.9407 60.4135 47.5161 61.8421 47.5161 63.3835C47.5161 65.188 46.8174 66.7293 45.4198 68.0451C44.0223 69.3233 42.337 70 40.3641 70C38.3911 70 36.7058 69.3609 35.3083 68.0451C33.9107 66.7669 33.212 65.188 33.212 63.3835C33.212 62.6692 33.3353 61.9549 33.623 61.2406H33.212C30.8279 61.2406 28.7728 60.4511 27.0464 58.8722C25.32 57.2932 24.4568 55.4135 24.4568 53.2331C24.4568 51.7293 24.8679 50.3759 25.69 49.2105C23.5526 48.1203 22.0317 46.579 21.0863 44.5113H15.825V44.4737C11.4269 44.2105 7.68643 42.6316 4.60364 39.6993C1.52084 36.7669 0 33.3083 0 29.2481ZM5.75455 28.3083C5.75455 31.3158 6.90546 33.8722 9.20728 35.9774C11.5091 38.0827 14.3042 39.1353 17.5514 39.1353C19.5655 39.1353 21.4562 38.7218 23.1826 37.8571C23.6759 40.6391 25.1145 42.9699 27.4574 44.8496C29.8004 46.7293 32.5954 47.6316 35.7604 47.6316C39.3365 47.6316 42.3782 46.4662 44.8855 44.1729C46.5708 45.9775 48.667 46.8421 51.2155 46.8421C53.5584 46.8421 55.5314 46.0902 57.2167 44.5865C58.8608 43.0827 59.6829 41.2406 59.6829 39.0977C61.3271 38.0827 62.6424 36.8045 63.5878 35.188C64.5332 33.609 65.0264 31.8797 65.0264 30.0376C65.0264 27.0677 63.8755 24.5113 61.5326 22.4436C59.1897 20.3759 56.3946 19.3233 53.1063 19.3233C50.8045 19.3233 48.7082 19.8872 46.8174 20.9774C47.064 20.0752 47.1462 19.0602 47.1462 18.0075C47.1462 14.3985 45.7487 11.3158 42.9125 8.7594C40.0763 6.20301 36.6647 4.96241 32.6776 4.96241C28.8139 4.96241 25.4844 6.20301 22.6894 8.60902C19.8943 11.015 18.4146 14.0226 18.2912 17.5188H17.5925C14.3453 17.5188 11.5913 18.5714 9.24838 20.6767C6.90546 22.782 5.75455 25.3759 5.75455 28.3083Z" fill="#FAFF00"/>
</svg>
